<?xml version="1.0" encoding="UTF-8"?>
<svg id="Layer_2" data-name="Layer 2" xmlns="http://www.w3.org/2000/svg" xmlns:xlink="http://www.w3.org/1999/xlink" viewBox="0 0 521.22 612.72">
  <defs>
    <style>
      .cls-1 {
        stroke: #d66e00;
        stroke-width: 3px;
      }

      .cls-1, .cls-2, .cls-3, .cls-4, .cls-5 {
        fill: none;
      }

      .cls-1, .cls-3 {
        stroke-linejoin: round;
      }

      .cls-1, .cls-3, .cls-4, .cls-5 {
        stroke-linecap: round;
      }

      .cls-6 {
        clip-path: url(#clippath);
      }

      .cls-2, .cls-7, .cls-8, .cls-9, .cls-10, .cls-11, .cls-12, .cls-13 {
        stroke-width: 0px;
      }

      .cls-14 {
        clip-path: url(#clippath-1);
      }

      .cls-3, .cls-4 {
        stroke: #162639;
      }

      .cls-3, .cls-4, .cls-5 {
        stroke-width: 2px;
      }

      .cls-4, .cls-5 {
        stroke-miterlimit: 10;
      }

      .cls-5 {
        stroke: #f2ece2;
      }

      .cls-7 {
        fill: #f2ece2;
      }

      .cls-8 {
        fill: #5559f4;
      }

      .cls-9 {
        fill: #9498ff;
      }

      .cls-10 {
        fill: #162639;
      }

      .cls-11 {
        fill: #d66e00;
      }

      .cls-12 {
        fill: #e5a519;
      }

      .cls-13 {
        fill: #ecbfb2;
      }
    </style>
    <clipPath id="clippath">
      <rect class="cls-2" y="43.7" width="478.47" height="500"/>
    </clipPath>
    <clipPath id="clippath-1">
      <rect class="cls-2" x="34.38" y="43.7" width="444.09" height="500"/>
    </clipPath>
  </defs>
  <g id="OBJECTS">
    <g class="cls-6">
      <g>
        <path class="cls-9" d="m422.64,98.85c-10.59-17.26-27.88-29.16-44.92-40.09-23.34-14.97-47.43-29.25-73.66-38.24-41.46-14.21-62.6-35.85-96.15-4.17-37.14,40.27-43.12,105.67-14.06,152.08,12.95,20.67,32.32,38.15,38.36,61.78,7.11,27.83-6.09,56.32-10.3,84.74-1.44,9.72-1.37,20.88,5.57,27.85,4.41,4.43,10.76,6.24,16.84,7.72,33.81,8.26,71.33,11.33,101.82-5.45,20.92-11.51,36.25-31.29,46.91-52.65,10.66-21.36,17.13-44.51,24.3-67.28,6.54-20.78,13.74-41.53,16.37-63.15s.31-44.58-11.07-63.15Z"/>
        <path class="cls-7" d="m123.28,393.41c20.18-20.97,45.96-32.84,71.6-42.66,25.63-9.82,51.97-18.13,75.52-33.53,58.87-38.5,93.1-122.85,81.44-200.66-4.2-28.04-13.02-59.94,1.66-82.62,7.83-12.1,20.67-18.11,33.16-22.15,21.13-6.83,43.21-9.61,65.1-8.2,13.67.88,28.55,4.19,37.29,16.54,6.4,9.05,8.25,21.24,9.87,32.83,15.02,107.3,30.07,216.48,17.8,324.26-2.87,25.25-7.85,51.71-22.75,70.26-14.55,18.11-36.08,25.6-56.68,31.59-57.08,16.59-115.82,26.93-174.72,26.48-29.33-.23-58.67-3.17-87.51-9.52-21.35-4.71-57.59-9.23-74.71-26.38-19.76-19.79,9.37-62.12,22.94-76.23Z"/>
        <path class="cls-9" d="m55.1,556.83c4.31-50.01,25.78-98.62,75.25-117.89,44.7-17.41,101.21-7.75,135.18-48.17,14.21-16.91,24.11-37.99,35.22-57.84,21.77-38.9,45.72-65.63,82.44-84.09,22.36-11.24,46.17-18.52,70.37-21.44,17.21-2.08,51.33-9.23,59.79,15.25l-2.59,342.59s-436.92,3.52-441.79,3.55c-12.31.08-15.45-13.65-13.88-31.95Z"/>
      </g>
      <path class="cls-5" d="m189.17,18.93c-40.34,32.56-54.63,93.54-32.94,140.63,13.39,29.07,39.19,55.08,37.07,87.01-1.69,25.53-21.46,46.36-43.07,60.05-21.61,13.69-46.1,22.68-66.59,38-38.75,28.97-58.8,78.21-60.84,126.55-2.04,48.34,12.05,96.03,30.97,140.56"/>
    </g>
    <g class="cls-14">
      <g>
        <g>
          <path class="cls-4" d="m290.91,121.59c-2.37,2.44-3.32,5.96-3.46,9.36-.09,2.12.12,4.31,1.07,6.21.95,1.9,2.75,3.46,4.86,3.7,2.12.24,4.22-.88,5.68-2.44,1.46-1.56,2.39-3.53,3.3-5.47,1.1-2.34,2.23-4.9,1.67-7.43-1.38-6.28-8.6-8.58-13.12-3.93Z"/>
          <path class="cls-4" d="m416.01,174.65c1.22,4.22,4.76,7.78,9.07,8.68,4.3.89,9.15-1.13,11.25-4.99,2.71-4.98.27-11.67-4.4-14.89-9.39-6.48-19.16-.05-15.92,11.21Z"/>
          <path class="cls-4" d="m339.05,288.23c-.34,3.55,1.17,7.12,3.52,9.8,2.18,2.5,5.41,4.42,8.69,3.91,3.19-.5,5.74-3.36,6.24-6.55.5-3.19-.88-6.51-3.23-8.72-5.22-4.9-14.17-9.45-15.22,1.55Z"/>
          <path class="cls-4" d="m371.97,312.31c2.24,1.08,4.82,1.21,7.29.98,2.47-.23,4.9-.8,7.38-1.04,1.12-.11,2.29-.15,3.31-.63,2.06-.97,3.01-3.57,2.55-5.8-.46-2.23-2.06-4.08-3.91-5.4-4.26-3.04-12.11-4.02-16.84-1.24-4.96,2.91-5.13,10.55.22,13.14Z"/>
          <path class="cls-4" d="m217.5,314.43c-.95,4.17,1.62,8.93,5.72,10.16,4.1,1.23,9.02-1.57,9.81-5.78.43-2.28-.27-4.66-1.49-6.63-1.99-3.2-4.27-5.91-8.1-4.41-2.86,1.12-5.25,3.63-5.94,6.65Z"/>
          <path class="cls-4" d="m192.25,298.84c-2.38,3.62-2.31,8.4,1.33,11.36,2.11,1.72,5.65,2.64,8.37,1.52,2.3-.94,3.36-2.98,4.24-4.85,1.31-2.78,2.64-5.66,2.42-8.61-.78-10.45-12.37-5.48-16.36.58Z"/>
          <path class="cls-4" d="m446.1,186.46c1.54,1.53,3.74,2.29,5.91,2.33,2.14.04,4.52-.77,5.41-2.71,1.92-4.18-3.42-10.19-7.67-10.02-5.21.22-7.15,6.9-3.64,10.4Z"/>
          <path class="cls-4" d="m308.03,114.68c.16,3.41,2.41,6.54,5.41,8.18,3,1.63,6.64,1.86,9.97,1.08,2.67-.63,5.24-1.93,7.02-4.02,1.78-2.08,2.69-5,2-7.66-.97-3.77-4.87-6.19-8.74-6.65-6.19-.75-16.04,1.02-15.67,9.07Z"/>
        </g>
        <g>
          <path class="cls-1" d="m206.87,502.01c-2.68,2.76-3.75,6.73-3.91,10.57-.1,2.4.14,4.87,1.21,7.01,1.07,2.14,3.11,3.91,5.49,4.18,2.4.27,4.76-.99,6.41-2.76,1.65-1.77,2.7-3.99,3.72-6.17,1.24-2.64,2.52-5.53,1.89-8.39-1.55-7.09-9.71-9.69-14.81-4.44Z"/>
          <path class="cls-1" d="m311.62,531.14c1.38,4.77,5.38,8.79,10.24,9.8,4.86,1.01,10.33-1.28,12.7-5.64,3.06-5.62.3-13.18-4.97-16.81-10.6-7.31-21.64-.05-17.97,12.66Z"/>
          <path class="cls-1" d="m262.69,484.35c1.1,3.82,4.31,7.05,8.2,7.85,3.9.81,8.28-1.03,10.18-4.52,2.45-4.51.24-10.56-3.98-13.48-8.5-5.86-17.34-.04-14.41,10.14Z"/>
          <path class="cls-1" d="m227.47,525.73c-3.71,1.59-6.42,5.01-7.81,8.8-1.29,3.52-1.45,7.76.83,10.73,2.22,2.89,6.44,3.87,9.87,2.64,3.43-1.23,5.97-4.4,6.89-7.92,2.03-7.83,1.69-19.15-9.78-14.25Z"/>
          <path class="cls-1" d="m255.77,458.05c2.52,1.22,5.44,1.37,8.23,1.11,2.79-.26,5.54-.9,8.33-1.17,1.27-.12,2.58-.17,3.73-.72,2.33-1.09,3.4-4.03,2.88-6.55-.52-2.52-2.32-4.61-4.42-6.1-4.81-3.43-13.67-4.54-19.01-1.41-5.6,3.28-5.79,11.91.25,14.83Z"/>
          <path class="cls-1" d="m282.64,462.96c.18,3.85,2.72,7.39,6.11,9.23,3.39,1.84,7.5,2.1,11.25,1.22,3.01-.71,5.92-2.18,7.93-4.54,2.01-2.35,3.03-5.65,2.26-8.64-1.1-4.25-5.5-6.99-9.86-7.51-6.99-.84-18.11,1.15-17.7,10.25Z"/>
        </g>
        <path class="cls-8" d="m304.3,211.34c3.79,3.38,8.89,4.89,13.91,5.65,7.66,1.15,15.46.75,23.19.35,6.05-.31,12.16-.64,17.99-2.27,11.34-3.17,21.15-11.47,26.16-22.13,3.87-8.25,4.83-17.8,2.84-26.67-1.97-8.8-11.04-13.16-19.53-14.81-5.81-1.13-12.1-.35-17.11,2.8-5.32,3.35-8.81,9.04-14.02,12.58-6.78,4.61-15.53,5-23.08,8.2-6.9,2.93-12.86,8.52-15.25,15.63-2.38,7.11-.7,15.68,4.89,20.67Zm14.52-13.25c-1.89-2.01-3-4.94-2.23-7.59,1.42-4.84,7.54-6.03,12.5-6.91,8.08-1.43,15.9-4.3,22.98-8.43,4.94-2.88,10.19-6.51,15.81-5.49,5.9,1.07,9.86,7.44,9.5,13.42-.36,5.98-4.22,11.32-9.04,14.88-12.33,9.12-28.43,9.63-42.48,4.32-2.58-.98-5.15-2.2-7.05-4.21Z"/>
        <g>
          <path class="cls-4" d="m245.11,143.57c1.44,17.7,5.72,39.83,10.61,56.91"/>
          <path class="cls-4" d="m219.15,178.71c21.24-4.99,42.76-8.78,64.44-11.32"/>
          <path class="cls-4" d="m228.95,149.98c11.92,15.22,26.25,28.54,42.29,39.32"/>
          <path class="cls-4" d="m234.43,192.4c10.5-12.43,22.35-31.5,29.89-45.92"/>
        </g>
        <path class="cls-11" d="m420.28,30.61c-.21,16.16,11.13,29.85,21.58,42.17,10.46,12.32,21.25,26.75,19.63,42.83-.69,6.83-6.88,14.45-12.9,6.71-2.03-2.61-2.75-5.97-3.41-9.21-2.07-10.08-4.2-20.41-9.59-29.17-3.49-5.68-12.09-15.93-19.88-11.69-3.2,1.74-5.17,5.07-6.79,8.32-6.03,12.07-9.49,25.4-10.16,38.87-.3,5.98,1.03,12.06-1.54,17.64-1.95,4.24-7.03,8.33-11.88,6.09-3.26-1.51-4.85-5.42-4.69-9.01.16-3.59,1.71-6.95,3.23-10.2,4.51-9.63,9.03-19.26,13.54-28.89,1.6-3.41,3.23-6.95,3.25-10.71.08-13.04-9.84-3.04-13.58,1.8-5.32,6.89-9.22,14.74-13.38,22.35-3.05,5.58-16.14,20.36-21.21,8.07-2.04-4.94,1.92-10.16,5.59-14.04,7.64-8.08,15.27-16.17,22.91-24.25,2.48-2.62,5.02-6.78,2.57-9.43-1.63-1.76-4.44-1.48-6.81-1.06-10.4,1.85-20.8,3.7-31.2,5.54-3.66.65-7.47,1.3-11.07.34-3.6-.96-6.92-4.02-6.92-7.74,0-3.57,3.06-6.55,6.45-7.66,3.39-1.12,7.06-.79,10.61-.49,11.22.94,22.7,1.47,33.56-1.49,10.86-2.97,21.15-9.99,25.44-20.4,1.18-2.86,1.94-6,3.99-8.32,2.05-2.32,6.05-3.33,8.17-1.08"/>
        <path class="cls-11" d="m131.21,549.77c3.91-10.78-2.1-23.04-10.93-30.34-8.84-7.3-20.03-10.95-30.6-15.38-10.57-4.43-21.3-10.26-27.13-20.13-1.87-3.16-3.09-7.39-.89-10.33,3.42-4.58,10.63-1.53,15.26,1.81,8.84,6.38,17.67,12.75,26.51,19.13,4.73,3.41,12.29,6.4,15.45,1.51,3.03-4.68-2.19-10.26-6.82-13.37-13.74-9.27-27.48-18.53-41.22-27.79-4.4-2.97-8.96-6.1-11.54-10.74-2.58-4.64-2.47-11.23,1.69-14.52,4.14-3.27,10.5-1.92,14.55,1.47,4.05,3.38,6.43,8.3,9.04,12.88,5.46,9.58,12.42,18.31,20.54,25.77,4.04,3.71,10.33,7.17,14.56,3.67,4.55-3.76,1.61-11.03-1.43-16.09-7.85-13.07-14.4-26.93-19.52-41.29-1.92-5.39-2.47-13.33,3.02-14.95,5-1.47,8.94,4.27,10.83,9.12,5.69,14.63,9.62,29.94,11.67,45.5.76,5.78,3.02,13.27,8.85,13.21,3.76-.04,6.47-3.5,8.58-6.61,3.52-5.2,7.04-10.4,10.56-15.6,1.85-2.74,4.11-5.74,7.39-6.14,5.2-.63,8.67,6.08,7.28,11.14-1.39,5.05-5.61,8.71-9.13,12.59-12.61,13.89-17.62,33.36-17.5,52.12.11,18.76,4.85,37.14,9.56,55.3"/>
        <g>
          <g>
            <path class="cls-13" d="m290.98,370.16c6.3-7.14,12.83-14.74,14.71-24.07.56-2.78.46-6.17-1.84-7.82-2.05-1.47-4.92-.89-7.2.2-5.03,2.39-8.89,6.83-11.44,11.78-2.55,4.95-3.91,10.43-4.97,15.9-.91-6.98-3.67-13.72-7.92-19.33-1.82-2.4-4.6-4.82-7.5-3.99-1.91.55-3.21,2.44-3.56,4.4-.35,1.96.08,3.97.65,5.87,2.03,6.76,5.89,12.96,11.05,17.78-6.31-2.84-13.34-2.84-19.8-.33-4.28,1.66-8.29,4.72-9.81,9.05-1.52,4.33.24,9.93,4.51,11.62,3.7,1.46,7.82-.23,11.41-1.92,5.24-2.45,10.46-4.94,15.67-7.47-3.37,7.72-6.58,15.49-6.11,23.9.17,2.92.86,6.06,3.11,7.94,3.05,2.55,7.96,1.64,10.85-1.09,2.89-2.74,4.13-6.78,4.75-10.71,1.02-6.41.68-13.04-.97-19.32,5.6,6.89,14.46,9.93,23.26,8.72,3.09-.42,6.58-1.91,7.2-4.96.43-2.08-.66-4.16-1.89-5.89-5.5-7.74-14.67-10.04-24.16-10.24Z"/>
            <path class="cls-8" d="m291.98,377.3c9.2-2.43,18.86-5.11,25.62-11.82,2.01-2,3.81-4.87,2.82-7.53-.88-2.36-3.59-3.47-6.09-3.84-5.51-.81-11.18.73-16.06,3.43-4.88,2.7-9.05,6.49-12.98,10.44,3.13-6.31,4.58-13.44,4.17-20.47-.18-3.01-1.14-6.56-4.01-7.49-1.89-.61-4.02.24-5.41,1.67s-2.14,3.34-2.72,5.24c-2.07,6.75-2.32,14.05-.71,20.92-3.67-5.87-9.51-9.79-16.26-11.29-4.48-1-9.51-.69-13.19,2.06-3.68,2.75-5.33,8.38-2.72,12.16,2.26,3.27,6.62,4.15,10.55,4.76,5.72.88,11.45,1.71,17.18,2.51-7.1,4.54-14.09,9.21-18.37,16.46-1.49,2.52-2.65,5.52-1.83,8.33,1.12,3.82,5.7,5.8,9.62,5.13,3.92-.67,7.2-3.34,9.91-6.26,4.41-4.76,7.82-10.46,9.94-16.59.82,8.84,6.49,16.3,14.48,20.19,2.8,1.36,6.53,2.07,8.75-.12,1.51-1.49,1.76-3.82,1.7-5.94-.27-9.49-6.61-16.51-14.38-21.95Z"/>
            <path class="cls-12" d="m274.36,372.71c-1.68,3.65,0,8.53,3.63,10.26,3.63,1.73,8.56-.14,10.02-3.89,3.18-8.2-9.36-15.7-13.65-6.37Z"/>
          </g>
          <path class="cls-3" d="m293.03,413.56c3.41,3.42,9.24,4.08,13.33,1.52,4.09-2.56,6.04-8.1,4.44-12.66,5.69-.24,10.31-4.39,11.97-9.84s-.46-11.83-5.05-15.2c5.18-1.69,7.9-5.86,9.86-10.95,1.58-4.12,1.55-9.05-.94-12.69-2.49-3.64-7.71-5.46-11.6-3.39,1.15-3.29.94-6.95.32-10.38-.62-3.43-2.66-6.73-5.8-8.25-2.88-1.39-6.35-1.16-9.35-.04-3,1.12-5.62,3.05-8.14,5.02.39-3.05-2.27-6-5.16-7.04-2.89-1.04-6.22-.3-8.76,1.43-2.54,1.73-4.35,4.35-5.65,7.13-3.61-2.84-9.42-1.69-13.03,1.16-3.61,2.84-5.28,7.74-4.79,12.3-3.77.04-8.31,1.2-11.18,3.65s-4.83,5.92-5.46,9.63c-.52,3.08.2,6.8,2.98,8.21-2.78,2.61-6.24,5.8-7.04,9.52-.81,3.73-.12,7.85,2.23,10.86,2.35,3.01,6.43,4.69,10.14,3.79-3.5,5.2-2.93,13.05,1.32,17.66,4.25,4.61,11.75,5.81,17.22,2.75,2.82,3.74,6.76,6.17,11.43,6.61,4.66.44,8.64.39,12.1-2.76,1.77-1.61,3.91-4.69,4.6-8.05Z"/>
        </g>
        <g>
          <g>
            <path class="cls-4" d="m169.49,358.41c-.47,6.78-.94,21.22-.94,21.22"/>
            <path class="cls-4" d="m157.29,369.68c8.79,1.22,14.68.23,23.46,1.44"/>
          </g>
          <g>
            <path class="cls-4" d="m192.11,370.82c.19-6.79.18-21.24.18-21.24"/>
            <path class="cls-4" d="m201.51,359.15c-7.03-.92-11.69.26-18.71-.66"/>
          </g>
          <g>
            <path class="cls-4" d="m196.33,380.62c-.47,5.79-.58,11.6-.35,17.4"/>
            <path class="cls-4" d="m184.65,388.98c7.38-.12,14.76-.24,22.14-.37"/>
          </g>
          <g>
            <path class="cls-4" d="m148.19,381.25c-.47,5.79-.58,11.6-.35,17.4"/>
            <path class="cls-4" d="m136.52,389.62c7.38-.12,14.76-.24,22.14-.37"/>
          </g>
          <g>
            <path class="cls-4" d="m169.63,394.85c-.35,5.79-.43,11.6-.26,17.4"/>
            <path class="cls-4" d="m160.93,403.21c5.5-.12,10.99-.24,16.49-.37"/>
          </g>
          <g>
            <path class="cls-4" d="m146.08,343.05c-.35,5.79-.43,11.6-.26,17.4"/>
            <path class="cls-4" d="m137.38,351.41c5.5-.12,10.99-.24,16.49-.37"/>
          </g>
        </g>
        <g>
          <path class="cls-12" d="m198.71,54.13c-.6,2.77.28,5.67,1.68,8.13.87,1.54,1.98,2.99,3.49,3.91,1.51.92,3.47,1.23,5.06.47,1.6-.77,2.59-2.48,2.93-4.23.34-1.75.13-3.54-.08-5.31-.26-2.14-.59-4.44-2.09-5.98-3.74-3.82-9.85-2.26-10.98,3.01Z"/>
          <path class="cls-12" d="m292.42,77.2c2.72,2.44,6.79,3.39,10.22,2.12,3.43-1.27,5.95-4.83,5.73-8.48-.28-4.71-4.95-8.35-9.66-8.56-9.47-.43-13.54,8.41-6.29,14.92Z"/>
          <path class="cls-12" d="m194.53,98.61c2.72,2.44,6.79,3.39,10.22,2.12,3.43-1.27,5.95-4.83,5.73-8.48-.28-4.71-4.95-8.35-9.66-8.56-9.47-.43-13.54,8.41-6.29,14.92Z"/>
          <path class="cls-12" d="m242.84,74.94c1.33,2.66,3.96,4.5,6.8,5.36,2.64.8,5.77.73,7.85-1.07,2.03-1.75,2.57-4.9,1.52-7.37-1.05-2.47-3.49-4.2-6.12-4.72-5.84-1.16-14.15-.42-10.05,7.8Z"/>
          <path class="cls-12" d="m235.4,48.89c2.05-.22,3.93-1.27,5.57-2.52,1.64-1.25,3.11-2.73,4.75-3.98.74-.57,1.54-1.12,2.05-1.9,1.03-1.59.55-3.84-.75-5.21-1.31-1.37-3.25-1.97-5.14-2.09-4.34-.26-10.31,2.5-12.42,6.54-2.21,4.23,1.03,9.7,5.94,9.17Z"/>
          <path class="cls-12" d="m247.74,107.67c1.17,3.36,5.08,5.58,8.51,4.64,3.43-.94,5.67-5.09,4.37-8.4-.7-1.79-2.24-3.17-3.97-4.02-2.81-1.38-5.62-2.29-7.65.46-1.52,2.05-2.1,4.87-1.26,7.31Z"/>
          <path class="cls-12" d="m220.36,90.47c.3,3.16,2.32,6.32,5.39,7.13,1.78.47,3.96-.04,4.87-1.64.77-1.36.46-3.04.13-4.57-.49-2.26-1.02-4.6-2.35-6.49-4.74-6.7-8.54.27-8.04,5.56Z"/>
          <path class="cls-12" d="m285.72,104.22c1.76.4,3.64-.04,5.19-.96,1.52-.91,2.85-2.53,2.62-4.3-.49-3.79-6.91-5.68-9.83-3.68-3.58,2.45-2,8.02,2.02,8.94Z"/>
          <path class="cls-12" d="m262.35,48.06c1.61,2.34,4.58,3.55,7.42,3.38,2.84-.17,5.5-1.61,7.5-3.63,1.6-1.62,2.84-3.67,3.18-5.93.34-2.26-.31-4.71-1.96-6.28-2.35-2.23-6.16-2.22-9.09-.84-4.69,2.2-10.86,7.79-7.05,13.3Z"/>
        </g>
        <g>
          <path class="cls-13" d="m450.92,437.51c-5.56-12.34-17.06-22.84-28.71-26.9-26.51-9.25-55.84,15.18-50.56,44.74,2.31,12.94,11.84,23.98,23.57,29.09,10.79,4.71,21.48,3.87,32.59,1.66,9.14-1.82,18.06-10.65,22.71-18.88,5.43-9.61,4.67-20.21.4-29.71Zm-26.68,31.64c-6.08,4.21-12.29,5.23-19.76,2-6.65-2.88-12.17-8.44-14.68-15.24-2.51-6.8-1.87-14.76,1.98-20.9,6.16-9.81,19.27-13.18,29.72-8.26,8.42,3.97,14.11,13.14,13.92,22.45-.15,7.19-3.79,14.16-9.39,18.62-.6.48-1.2.92-1.8,1.34Z"/>
          <path class="cls-11" d="m403.36,457.64c2.09,1.85,5.12,2.44,7.84,1.83,3.75-.83,6.91-3.91,7.85-7.63,1.58-6.29-4.85-15.63-12.01-12.53-6.12,2.65-8.81,13.79-3.69,18.33Z"/>
        </g>
        <path class="cls-12" d="m208.12,460.04c10.7-4.4,24.43-1.75,31.32,7.55,6.53,8.82,6.24,21.65,13.75,29.66,6.08,6.48,16.06,8.09,24.71,6.06s16.23-7.14,23.29-12.54c7.06-5.39,13.91-11.23,21.92-15.08,8.64-4.16,18.65-5.83,27.98-3.62,9.33,2.21,17.83,8.56,21.66,17.35,3.76,8.63,2.85,18.48,4.17,27.81,1.32,9.32,6.39,19.56,15.66,21.26,8.16,1.5,15.72-4.22,23.75-6.3,11.95-3.09,25.64,2.96,31.39,13.89,5.75,10.92,2.98,25.64-6.34,33.73-2.39,2.08-5.6,3.81-8.63,2.86-3.62-1.13-5.11-5.46-5.35-9.24-.24-3.78.2-7.81-1.61-11.14-2.5-4.59-8.49-6.14-13.69-5.56-5.2.58-10.08,2.76-15.22,3.72-16.71,3.12-34.77-9.09-38.1-25.77-1.31-6.57-.58-13.38-1.26-20.04s-3.24-13.75-9.04-17.11c-4.57-2.65-10.34-2.43-15.36-.79-5.02,1.65-9.5,4.57-14.05,7.26-13.88,8.18-28.97,14.29-44.62,18.09-10.44,2.53-22.8,3.56-30.66-3.78-8.84-8.26-8.05-23.71-17.44-31.34-5.84-4.74-14.36-5.05-21.43-2.49-3.21,1.16-6.24,2.85-9.56,3.65-11.3,2.7-7.98-5.98-4.41-12.28,3.9-6.88,9.77-12.77,17.16-15.81Z"/>
        <path class="cls-12" d="m479.04,296.49c-6.03,17.65-19.66,32.55-36.7,40.13-8.36,3.72-20.85,4.08-23.94-4.53-4.09-11.4,13.96-20.13,13.55-32.23-.25-7.21-7.14-12.44-13.96-14.79-6.83-2.35-14.31-2.99-20.55-6.61s-10.8-11.92-7.04-18.09c5.28-8.66,20.6-4.9,26.51-13.15,4.7-6.56.05-15.61-4.96-21.93-5.01-6.33-10.81-14.07-8.05-21.65,8.39-22.98,56.57,9.38,67.49,17.1,6.33,4.47,12.69,9.87,14.81,17.32"/>
        <g>
          <path class="cls-11" d="m217.23,245.62c4.9,1.05,6.09,5.94,8.27,9.48,2.36,3.83,8.88,16.59,10.66,16.12,2.36-.62,15.24-13.83,18.86-17.77,6.24-6.8,13.07-14.08,22.16-18.09,7.73-3.41,12.16-.24,16.2,5.13,6.62,8.8,12.81,17.01,19.78,25.59.92-1.23,14.86-17.43,21.65-24.57,3.52-3.71,9.46-12.3,15.07-11.15,2.86.59,8.08,10.75,11.19,16.87,3.88,7.65,7.82,15.4,11.36,23.15.5,1.1,1.01,2.22,1.04,3.41.1,4.21-8.09,7.03-12.02,7.7-3.98.68-3.99-1.61-5.55-4.56-2.29-4.36-6.23-20.89-11.76-21.64-3.2-.43-17.58,20.84-20.68,25.09-2.48,3.4-9.7,13.6-13.42,13.9-4.2.35-20.97-24.42-24.79-30.34-1.28-1.98-4.42-7.48-6.8-7.68-3.33-.28-13.25,9.37-17.15,13.83-6.17,7.04-12.73,13.5-19.87,19.86-6.36,5.67-11.4,4.34-16.95-1.32-7.77-7.94-14.15-17.04-19.86-26.2-1.22-1.96-4.15-5.18-4.15-7.45,0-6.31,10.31-10.15,16.01-9.5.26.03.51.07.75.12Z"/>
          <g>
            <path class="cls-10" d="m207.77,259.13c3.22,0,3.22-5,0-5s-3.22,5,0,5h0Z"/>
            <path class="cls-10" d="m221.01,261.94c3.22,0,3.22-5,0-5s-3.22,5,0,5h0Z"/>
            <path class="cls-10" d="m220.07,272.82c.08-.08.15-.17.23-.25.24-.23.42-.49.52-.8.16-.3.23-.62.22-.96.01-.34-.06-.67-.22-.96-.1-.31-.27-.58-.52-.8l-.51-.39c-.39-.23-.81-.34-1.26-.34l-.66.09c-.42.12-.79.33-1.1.64-.08.08-.15.17-.23.25-.24.23-.42.49-.52.8-.16.3-.23.62-.22.96-.01.34.06.67.22.96.1.31.27.58.52.8l.51.39c.39.23.81.34,1.26.34l.66-.09c.42-.12.79-.33,1.1-.64h0Z"/>
            <path class="cls-10" d="m232.19,285.8c3.22,0,3.22-5,0-5s-3.22,5,0,5h0Z"/>
            <path class="cls-10" d="m248.87,272.47c3.22,0,3.22-5,0-5s-3.22,5,0,5h0Z"/>
            <path class="cls-10" d="m264.36,255.74c3.22,0,3.22-5,0-5s-3.22,5,0,5h0Z"/>
            <path class="cls-10" d="m262.15,265.09c.08-.01.17-.02.25-.03.34.01.67-.06.96-.22.31-.1.58-.27.8-.52.24-.23.42-.49.52-.8.16-.3.23-.62.22-.96l-.09-.66c-.12-.42-.33-.79-.64-1.1l-.51-.39c-.39-.23-.81-.34-1.26-.34-.08.01-.17.02-.25.03-.34-.01-.67.06-.96.22-.31.1-.58.27-.8.52-.24.23-.42.49-.52.8-.16.3-.23.62-.22.96l.09.66c.12.42.33.79.64,1.1l.51.39c.39.23.81.34,1.26.34h0Z"/>
            <path class="cls-10" d="m271.18,244.06c3.22,0,3.22-5,0-5s-3.22,5,0,5h0Z"/>
            <path class="cls-10" d="m244.25,283.21c3.22,0,3.22-5,0-5s-3.22,5,0,5h0Z"/>
            <path class="cls-10" d="m280.47,254.65c3.22,0,3.22-5,0-5s-3.22,5,0,5h0Z"/>
            <path class="cls-10" d="m286.91,241.91c3.22,0,3.22-5,0-5s-3.22,5,0,5h0Z"/>
            <path class="cls-10" d="m287.34,259.71c.08-.08.15-.17.23-.25.24-.23.42-.49.52-.8.16-.3.23-.62.22-.96.01-.34-.06-.67-.22-.96-.1-.31-.27-.58-.52-.8l-.51-.39c-.39-.23-.81-.34-1.26-.34l-.66.09c-.42.12-.79.33-1.1.64-.08.08-.15.17-.23.25-.24.23-.42.49-.52.8-.16.3-.23.62-.22.96-.01.34.06.67.22.96.1.31.27.58.52.8l.51.39c.39.23.81.34,1.26.34l.66-.09c.42-.12.79-.33,1.1-.64h0Z"/>
            <path class="cls-10" d="m294.96,257.08c3.22,0,3.22-5,0-5s-3.22,5,0,5h0Z"/>
            <path class="cls-10" d="m301.4,275.99c3.22,0,3.22-5,0-5s-3.22,5,0,5h0Z"/>
            <path class="cls-10" d="m306.05,284.73c0-.07-.02-.15-.03-.22.01-.34-.06-.67-.22-.96-.1-.31-.27-.58-.52-.8-.23-.24-.49-.42-.8-.52-.3-.16-.62-.23-.96-.22l-.66.09c-.42.12-.79.33-1.1.64l-.39.51c-.23.39-.34.81-.34,1.26,0,.07.02.15.03.22-.01.34.06.67.22.96.1.31.27.58.52.8.23.24.49.42.8.52.3.16.62.23.96.22l.66-.09c.42-.12.79-.33,1.1-.64l.39-.51c.23-.39.34-.81.34-1.26h0Z"/>
            <path class="cls-10" d="m314.92,283.19c3.22,0,3.22-5,0-5s-3.22,5,0,5h0Z"/>
            <path class="cls-10" d="m315.08,271.88c3.22,0,3.22-5,0-5s-3.22,5,0,5h0Z"/>
            <path class="cls-10" d="m322.25,263.03c3.22,0,3.22-5,0-5s-3.22,5,0,5h0Z"/>
            <path class="cls-10" d="m331.52,265.24c0-.07-.02-.15-.03-.22.01-.34-.06-.67-.22-.96-.1-.31-.27-.58-.52-.8-.23-.24-.49-.42-.8-.52-.3-.16-.62-.23-.96-.22l-.66.09c-.42.12-.79.33-1.1.64l-.39.51c-.23.39-.34.81-.34,1.26,0,.07.02.15.03.22-.01.34.06.67.22.96.1.31.27.58.52.8.23.24.49.42.8.52.3.16.62.23.96.22l.66-.09c.42-.12.79-.33,1.1-.64l.39-.51c.23-.39.34-.81.34-1.26h0Z"/>
            <path class="cls-10" d="m345.03,244.75c3.22,0,3.22-5,0-5s-3.22,5,0,5h0Z"/>
            <path class="cls-10" d="m360.09,254.21c0-.07-.02-.15-.03-.22.01-.34-.06-.67-.22-.96-.1-.31-.27-.58-.52-.8-.23-.24-.49-.42-.8-.52-.3-.16-.62-.23-.96-.22l-.66.09c-.42.12-.79.33-1.1.64l-.39.51c-.23.39-.34.81-.34,1.26,0,.07.02.15.03.22-.01.34.06.67.22.96.1.31.27.58.52.8.23.24.49.42.8.52.3.16.62.23.96.22l.66-.09c.42-.12.79-.33,1.1-.64l.39-.51c.23-.39.34-.81.34-1.26h0Z"/>
            <path class="cls-10" d="m335.23,259.45c3.22,0,3.22-5,0-5s-3.22,5,0,5h0Z"/>
            <path class="cls-10" d="m366.23,272.47c3.22,0,3.22-5,0-5s-3.22,5,0,5h0Z"/>
            <path class="cls-10" d="m349.01,254c3.22,0,3.22-5,0-5s-3.22,5,0,5h0Z"/>
            <path class="cls-10" d="m352.16,234.73c-.17.02-.34.03-.51.05-.34-.01-.67.06-.96.22-.31.1-.58.27-.8.52-.24.23-.42.49-.52.8-.16.3-.23.62-.22.96l.09.66c.12.42.33.79.64,1.1l.51.39c.39.23.81.34,1.26.34.17-.02.34-.03.51-.05.34.01.67-.06.96-.22.31-.1.58-.27.8-.52.24-.23.42-.49.52-.8.16-.3.23-.62.22-.96l-.09-.66c-.12-.42-.33-.79-.64-1.1l-.51-.39c-.39-.23-.81-.34-1.26-.34h0Z"/>
            <path class="cls-10" d="m356.69,272.54c3.22,0,3.22-5,0-5s-3.22,5,0,5h0Z"/>
          </g>
        </g>
        <g>
          <path class="cls-7" d="m351.49,328.04v.44c-.01.34.06.67.22.96.1.31.27.58.52.8.23.24.49.42.8.52.3.16.62.23.96.22l.66-.09c.42-.12.79-.33,1.1-.64l.39-.51c.23-.39.34-.81.34-1.26v-.44c.01-.34-.06-.67-.22-.96-.1-.31-.27-.58-.52-.8-.23-.24-.49-.42-.8-.52-.3-.16-.62-.23-.96-.22l-.66.09c-.42.12-.79.33-1.1.64l-.39.51c-.23.39-.34.81-.34,1.26h0Z"/>
          <path class="cls-7" d="m339.92,344.61c3.22,0,3.22-5,0-5s-3.22,5,0,5h0Z"/>
          <path class="cls-7" d="m362.26,347.02c-.29-.15-.58-.3-.88-.45-.29-.18-.6-.28-.93-.3-.33-.07-.66-.06-1,.04-.33.08-.61.23-.85.45-.27.18-.49.41-.64.7l-.25.6c-.12.44-.12.89,0,1.33l.25.6c.22.38.52.67.9.9.29.15.58.3.88.45.29.18.6.28.93.3.33.07.66.06,1-.04.33-.08.61-.23.85-.45.27-.18.49-.41.64-.7l.25-.6c.12-.44.12-.89,0-1.33l-.25-.6c-.22-.38-.52-.67-.9-.9h0Z"/>
          <path class="cls-7" d="m380.8,335.21h-.44c-.34-.01-.67.06-.96.22-.31.1-.58.27-.8.52-.24.23-.42.49-.52.8-.16.3-.23.62-.22.96l.09.66c.12.42.33.79.64,1.1l.51.39c.39.23.81.34,1.26.34h.44c.34.01.67-.06.96-.22.31-.1.58-.27.8-.52.24-.23.42-.49.52-.8.16-.3.23-.62.22-.96l-.09-.66c-.12-.42-.33-.79-.64-1.1l-.51-.39c-.39-.23-.81-.34-1.26-.34h0Z"/>
          <path class="cls-7" d="m394.87,352.52c3.22,0,3.22-5,0-5s-3.22,5,0,5h0Z"/>
          <path class="cls-7" d="m371.57,359.39h-.44c-.34-.01-.67.06-.96.22-.31.1-.58.27-.8.52-.24.23-.42.49-.52.8-.16.3-.23.62-.22.96l.09.66c.12.42.33.79.64,1.1l.51.39c.39.23.81.34,1.26.34h.44c.34.01.67-.06.96-.22.31-.1.58-.27.8-.52.24-.23.42-.49.52-.8.16-.3.23-.62.22-.96l-.09-.66c-.12-.42-.33-.79-.64-1.1l-.51-.39c-.39-.23-.81-.34-1.26-.34h0Z"/>
          <path class="cls-7" d="m348.46,363.95c3.22,0,3.22-5,0-5s-3.22,5,0,5h0Z"/>
          <path class="cls-7" d="m373.33,390.32c3.22,0,3.22-5,0-5s-3.22,5,0,5h0Z"/>
          <path class="cls-7" d="m389.15,373.18c3.22,0,3.22-5,0-5s-3.22,5,0,5h0Z"/>
          <path class="cls-7" d="m353.11,378.01c3.22,0,3.22-5,0-5s-3.22,5,0,5h0Z"/>
          <path class="cls-7" d="m411.57,387.68c3.22,0,3.22-5,0-5s-3.22,5,0,5h0Z"/>
          <path class="cls-7" d="m433.98,367.9c3.22,0,3.22-5,0-5s-3.22,5,0,5h0Z"/>
          <path class="cls-7" d="m415.3,355.07c.44.15.88.29,1.32.44.33.1.66.12,1,.04.33-.02.64-.11.93-.3.29-.16.53-.37.7-.64.22-.24.37-.52.45-.85l.09-.66c0-.45-.12-.87-.34-1.26l-.39-.51c-.31-.31-.68-.52-1.1-.64-.44-.15-.88-.29-1.32-.44-.33-.1-.66-.12-1-.04-.33.02-.64.11-.93.3-.29.16-.53.37-.7.64-.22.24-.37.52-.45.85l-.09.66c0,.45.12.87.34,1.26l.39.51c.31.31.68.52,1.1.64h0Z"/>
          <path class="cls-7" d="m445.85,386.36c3.22,0,3.22-5,0-5s-3.22,5,0,5h0Z"/>
          <path class="cls-7" d="m431.79,402.19c3.22,0,3.22-5,0-5s-3.22,5,0,5h0Z"/>
          <path class="cls-7" d="m423.44,378.89c3.22,0,3.22-5,0-5s-3.22,5,0,5h0Z"/>
          <path class="cls-7" d="m457.72,357.79c3.22,0,3.22-5,0-5s-3.22,5,0,5h0Z"/>
          <path class="cls-7" d="m174.61,484.07v.92c-.01.34.06.67.22.96.1.31.27.58.52.8.23.24.49.42.8.52.3.16.62.23.96.22l.66-.09c.42-.12.79-.33,1.1-.64l.39-.51c.23-.39.34-.81.34-1.26v-.92c.01-.34-.06-.67-.22-.96-.1-.31-.27-.58-.52-.8-.23-.24-.49-.42-.8-.52-.3-.16-.62-.23-.96-.22l-.66.09c-.42.12-.79.33-1.1.64l-.39.51c-.23.39-.34.81-.34,1.26h0Z"/>
          <path class="cls-7" d="m193.66,470.02c3.22,0,3.22-5,0-5s-3.22,5,0,5h0Z"/>
          <path class="cls-7" d="m175.27,457.14c3.22,0,3.22-5,0-5s-3.22,5,0,5h0Z"/>
          <path class="cls-7" d="m208.37,470.94c3.22,0,3.22-5,0-5s-3.22,5,0,5h0Z"/>
          <path class="cls-7" d="m190.9,488.41c3.22,0,3.22-5,0-5s-3.22,5,0,5h0Z"/>
          <path class="cls-7" d="m199.18,451.63c3.22,0,3.22-5,0-5s-3.22,5,0,5h0Z"/>
          <path class="cls-7" d="m218.49,446.11c3.22,0,3.22-5,0-5s-3.22,5,0,5h0Z"/>
          <path class="cls-7" d="m214.81,458.98c3.22,0,3.22-5,0-5s-3.22,5,0,5h0Z"/>
          <path class="cls-7" d="m165.15,493.01c3.22,0,3.22-5,0-5s-3.22,5,0,5h0Z"/>
          <path class="cls-7" d="m173.43,517.83c3.22,0,3.22-5,0-5s-3.22,5,0,5h0Z"/>
          <path class="cls-7" d="m169.75,535.31c3.22,0,3.22-5,0-5s-3.22,5,0,5h0Z"/>
          <path class="cls-7" d="m447.46,501.28c3.22,0,3.22-5,0-5s-3.22,5,0,5h0Z"/>
          <path class="cls-7" d="m432.75,515.08c3.22,0,3.22-5,0-5s-3.22,5,0,5h0Z"/>
          <path class="cls-7" d="m460.34,522.43c3.22,0,3.22-5,0-5s-3.22,5,0,5h0Z"/>
          <path class="cls-7" d="m456.66,506.8c3.22,0,3.22-5,0-5s-3.22,5,0,5h0Z"/>
          <path class="cls-7" d="m475.97,501.28c3.22,0,3.22-5,0-5s-3.22,5,0,5h0Z"/>
          <path class="cls-7" d="m469.53,536.23c3.22,0,3.22-5,0-5s-3.22,5,0,5h0Z"/>
        </g>
      </g>
    </g>
  </g>
</svg>